<svg xmlns="http://www.w3.org/2000/svg" xmlns:xlink="http://www.w3.org/1999/xlink" id="Camada_1" viewBox="0 0 713.6 332.8"><defs><style>      .st0 {        fill: none;      }      .st1 {        fill: #393637;      }      .st1, .st2, .st3, .st4, .st5, .st6 {        fill-rule: evenodd;      }      .st2 {        fill: #fff;      }      .st3 {        fill: #fefefe;      }      .st4 {        fill: #383536;      }      .st7 {        clip-path: url(#clippath-1);      }      .st5 {        fill: #373435;      }      .st6 {        fill: #ed3237;      }      .st8 {        clip-path: url(#clippath);      }    </style><clipPath id="clippath"><rect class="st0" x="-66" y="-379.3" width="843.5" height="1091.5"></rect></clipPath><clipPath id="clippath-1"><rect class="st0" x="-66" y="-379.3" width="843.5" height="1091.5"></rect></clipPath></defs><g class="st8"><g class="st7"><g><path class="st5" d="M450.2,104.8c18-.3,28.6,12.2,32.5,22.6,18.8,51,37.6,102.1,56.2,153.2,2.3,6.4,4.6,12.9,6.9,19.3,1.2,3.2,2.1,6.5,2.5,9.9,1.3,11.9-6.7,21.7-18.7,22.7-2.5.2-5.1.2-7.6-.1-6.9-.7-13-5-16.1-11.3-1.6-3.2-2.9-6.4-3.9-9.8-2.2-7-4.5-14.1-6.7-21.1-1-3-.5-2.8-3.5-2.8-27.8,0-55.6,0-83.4,0-2.6,0-2.6,0-3.4,2.5-2.7,8.6-5.4,17.2-8.2,25.8-.6,1.8-1.2,3.5-2,5.2-2.7,5.8-8,10-14.3,11.1-5.6,1.3-11.5.7-16.9-1.5-6.8-3-11.3-7.9-12.8-15.3-.5-3-.3-6.2.7-9.1,2.7-8.9,5.9-17.5,9.2-26.2,18.7-50.1,37.3-100.3,56.2-150.4,4.2-11.2,11.8-19.8,23.9-23.5,3.1-.9,6.3-1.4,9.6-1.3"></path><path class="st5" d="M252.7,252c-1,.7-1.7,1.6-2.3,2.6-14.7,20-29.3,40-43.9,60-2.9,4-6.2,7.7-9.5,11.5-2.7,3.1-6.3,5.2-10.4,6-6,1.4-12.2.7-17.8-1.8-9.5-4.3-13.9-14-11.3-24.5,1.3-4.6,3.4-8.8,6.4-12.5,19-25.1,38.1-50.2,57.1-75.4,1.3-1.8,3.5-3.4,3.6-5.4s-2.2-3.7-3.5-5.4c-14-19.1-28.2-38-42.7-56.8-2.8-3.6-5.2-7.4-7.3-11.4-3.2-6.3-3.1-12.7-.8-19.2,1.6-4.9,5.4-8.8,10.2-10.6,11.7-4.3,21.3-2.6,29.5,5.8,7.4,7.6,13.7,16.1,19.7,24.8,7,10.2,13.8,20.4,20.8,30.6.7,1,1.1,2.2,2.4,2.8l14.7-20.8c7.8-11.1,15.5-22.2,23.7-33.1,2.3-3.1,4.9-5.9,8-8.3,8.4-6.3,21.7-4.6,27.9-.6,2.1,1.3,3.9,3,5.1,5.1,4.1,7,5.6,14.3,2.1,22.1-1.6,3.6-3.6,7.1-6,10.2-15.8,20.5-31.1,41.4-46.6,62.1-2.2,2.9-2.1,2.1,0,4.9,20.7,27.5,41.4,54.9,62.1,82.4,7.4,9.6,5.6,23.3-4,30.7-2,1.6-4.3,2.7-6.7,3.5-7,2.2-13.9,2-20.6-1.3-3.3-1.7-6.2-4.2-8.4-7.3-16.4-22.6-32.8-45.1-49.3-67.6-.8-1-1.6-2-2.4-3.1"></path><path class="st5" d="M103,232.8v75.1c0,2.4,0,4.9-.5,7.2-2,9.7-9.2,16.4-19,17.4-3.4.4-6.8.2-10.2-.4-9.6-1.8-16.7-9.9-17.3-19.6-.2-2.1-.2-4.2-.2-6.3v-150.8c0-4.6.5-4-4.1-4h-29.8c-1.8,0-3.5,0-5.3-.2-8.7-1.2-14.2-6.6-16.1-15.6-1.4-6.2-.2-12.7,3.3-18,3-5,8.2-8.3,14.1-8.7,1.6-.1,3.3-.3,4.9-.3h112.2c3.2,0,6.4.3,9.5,1.1,8.4,2.5,14.3,10.1,14.6,18.9.1,2.6,0,5.3-.5,7.9-1.5,7.6-6.1,12.2-13.6,14.1-2.7.6-5.4.9-8.2.9h-30.1c-4.1,0-3.8-.5-3.8,3.6v77.7"></path><path class="st5" d="M563.7,219.8v-87.6c0-2.6.1-5.3.6-7.9,1.7-9.2,9.3-16.2,18.6-17.2,3.4-.5,6.8-.4,10.2.2,10.5,2.1,17.3,10.4,17.8,21.7,0,1.2,0,2.4,0,3.6v174.3c.1,3.5-.3,7.1-1.2,10.5-2.5,8.7-10.2,14.8-19.2,15.2-3.3.3-6.6.1-9.9-.6-8.8-1.9-15.4-9.1-16.6-18-.3-2.4-.5-4.8-.4-7.3v-87"></path><path class="st5" d="M701.6,36.1c-.2,4.5-1.4,8.9-3.6,12.9-2.2,4-4.6,7.8-7.2,11.4-1.9,2.7-3.7,5.5-5.1,8.5-3,6.5-2,11.3,3.5,15.9,3.1,2.5,6.5,4.6,10.2,6.1,1.8.8,3.7,1.5,5.5,2.3,1.6.6,3,1.5,4.1,2.7,1.5,1.8,1.1,3.5-1.1,4.5-1.4.6-3,.7-4.5.3-2.2-.5-4.2-1.3-6.1-2.4-4.2-2.4-8.8-4.1-13.5-5.2-6.9-1.4-14-.6-20.4,2.1-4.6,1.9-8.9,4.3-13,7.1-3.5,2.3-7,4.7-10.4,7-1.8,1.3-3.7,2.4-5.8,3.1-1.1.4-2.3.6-3.5.8-.9.2-1.8-.2-2.3-1-.5-.9.1-1.7.7-2.3.6-.6,1.3-1.2,2.1-1.6,9.7-5.9,15.7-14.9,20.9-24.6,1.7-3.1.6-5.4-2.6-7-1.2-.5-2.5-.9-3.8-1.1-5.5-1.1-11-2.3-16.5-3.5-1.2-.2-2.3-.6-3.5-1-2.7-1.1-4-2.7-3.5-4.2s2.2-2.1,4.9-1.8c.8,0,1.5.3,2.3.4,12.1,2.1,24.1,2.3,36-1,9.8-2.7,18.3-7.5,24.6-15.7,3.5-4.6,6-9.8,7.3-15.4.4-1.5.5-3.9,2.5-3.6,1.8.2,1.4,2.4,1.8,3.9.1.8.2,1.6.2,2.4"></path><path class="st6" d="M713.6,13.7c0,7.6-6.1,13.8-13.7,13.8,0,0,0,0-.1,0-7.6,0-13.8-6.1-13.8-13.7,0-7.6,6.1-13.8,13.7-13.8,7.6-.1,13.9,5.9,14,13.5,0,0,0,.1,0,.2"></path><path class="st4" d="M376.2,56.5c0-3.8.7-7.5,2.4-10.8,3-5.7,7.8-8.4,14.3-8.3s11.1,2.7,13.9,8.4c3.5,7,3.5,15.3-.1,22.3-2.8,5.7-7.8,8-14.1,8s-10.8-2.5-13.8-8c-1.8-3.6-2.6-7.5-2.5-11.5"></path><path class="st1" d="M267.2,56.4c1.2.7,2.2,1.7,2.9,2.9,2.3,5.2,4.7,10.4,7,15.7q-3.9.8-5.3-2.5c-1.3-3.1-2.7-6.3-4-9.4-2-4.5-3.2-5.2-8.1-5.2-1.6,0-2.4.4-2.3,2.2.1,4.4,0,8.8,0,13.2s0,2.1-1.7,2.1-2.1-.4-2.1-2.1c0-11.1,0-22.3,0-33.4,0-1.4.3-2,1.8-2,3.4.1,6.8,0,10.2.2,6,.5,9.5,5,8.5,11-.4,2.5-2,4.7-4.3,5.9-.8.5-1.7.8-2.7,1.2"></path><path class="st4" d="M233.6,64.7c0,2.4,0,4.9,0,7.3.2,1.2-.7,2.4-1.9,2.6-5.2,1.8-10.9,2.1-16.3.6-5.2-1.4-9.4-5.3-11.1-10.4-1.7-4.7-1.9-9.8-.4-14.6,2-7.5,8.8-12.7,16.6-12.7,3.2-.2,6.4.1,9.5.9,1.4.4,2.1,1,1.8,2.6-.2,1.1-.7,1.5-1.8,1-2.6-1-5.3-1.4-8-1.3-8.4,0-14.1,5.2-15,13.6-.2,1.8-.2,3.5,0,5.3,1,8.3,6.5,13.1,15,13.1,2,0,4,0,5.9-.5,1.4-.4,2.1-.9,2-2.5,0-3.2,0-6.4,0-9.6,0-1.3-.5-1.8-1.7-1.8h-5.3c-1.3,0-1.7-.5-1.7-1.8s.5-1.5,1.6-1.5h9.2c1.1,0,1.5.5,1.5,1.6v7.9h0Z"></path><path class="st4" d="M320.9,52.1c0,3.4,0,6.8,0,10.2-.2,11.1-10.5,17.2-20.5,12.2-3.3-1.6-5.7-4.8-6.2-8.4-.3-1.4-.4-2.8-.4-4.3,0-7.2,0-14.3,0-21.5s-.2-2.2,1.5-2.3c1.9,0,2.3.1,2.3,2.1v21.1c0,1.8.2,3.5.7,5.2,1.3,4.1,4.6,6.3,9.4,6.2,4.5,0,7.8-2.3,9-6.4.5-1.6.7-3.2.6-4.9,0-7.2,0-14.3,0-21.5,0-1.7.7-2,2.2-2s1.6.8,1.6,1.9v12.2"></path><path class="st6" d="M667.2,61.3c-5.4.1-9.9-4.1-10-9.5,0,0,0-.1,0-.2-.1-5.4,4.2-10,9.6-10.1.1,0,.2,0,.4,0,5.4-.2,10,4.1,10.2,9.5.2,5.4-4.1,10-9.5,10.2-.2,0-.4,0-.6,0"></path><path class="st4" d="M340.5,56.5v-16.2c0-1.7.4-2.4,2.2-2.3,3,.1,6,0,8.9.1,5.8.4,9.2,3.8,9.7,9.3.5,5.8-2.4,9.9-7.9,11.4-2.3.5-4.6.7-6.9.5-1.8-.1-2.2.6-2.2,2.3.1,3.8,0,7.5,0,11.2s.4,2.8-1.8,2.6c-2-.1-2,0-2-2.7v-16.2"></path><path class="st2" d="M450.5,153.5c9.8,30.2,19.6,60.4,29.5,90.9h-60.4c10-30.4,20-60.7,29.9-90.9h1"></path><path class="st2" d="M380.1,56.7c-.2-3.6.7-7.2,2.6-10.3,4.6-7.7,15.4-7.9,19.9-.2,4.1,6.4,4.1,14.6,0,21-4.5,7.6-15,7.5-19.8,0-1.9-3.1-2.9-6.8-2.7-10.5"></path><path class="st2" d="M257.5,47.9c0-1.6,0-3.1,0-4.6,0-1.3.3-2.1,1.8-2,2,.1,4,0,5.9.2,3,.3,4.7,1.8,5.2,4.3.7,3.3-.4,5.9-3,7.4s-5.7,1.5-8.7,1.4c-1,0-1.2-.8-1.2-1.6v-5"></path><path class="st3" d="M348.6,41.3h2c5.7.3,8.8,5.8,6.2,10.9-.7,1.3-1.8,2.3-3.2,2.8-.7.3-1.5.4-2.2.6-6.8,1.4-7,1.2-7-5.6s.1-4.4,0-6.6c-.1-1.9.7-2.3,2.3-2.1.7,0,1.3,0,2,0h0Z"></path></g></g></g></svg>